<svg width="70" height="70" viewBox="0 0 70 70" fill="none" xmlns="http://www.w3.org/2000/svg">
<path d="M19.2438 20.2257H9.76294V66.0496H19.2438V20.2257Z" fill="white"/>
<path d="M33.4649 39.6061V20.2257H23.9841V66.0496H30.9639C28.6157 62.7208 27.2345 58.6631 27.2345 54.2887C27.2346 48.533 29.6254 43.3262 33.4649 39.6061Z" fill="white"/>
<path d="M47.6861 33.8372V20.2257H38.2053V36.1721C41.041 34.682 44.2666 33.8372 47.6861 33.8372Z" fill="white"/>
<path d="M50.8465 6.00451H37.6707V0H19.7785V6.00451H6.60266V15.4853H50.8465V6.00451ZM24.5189 4.74041H32.9302V6.00451H24.5189V4.74041Z" fill="white"/>
<path d="M47.6862 38.5775C39.023 38.5775 31.9751 45.6256 31.9751 54.2887C31.9751 62.9517 39.023 69.9999 47.6862 69.9999C56.3495 69.9999 63.3975 62.9519 63.3975 54.2887C63.3975 45.6254 56.3495 38.5775 47.6862 38.5775ZM56.2468 59.4972L52.8948 62.8492L47.6862 57.6406L42.4776 62.8492L39.1257 59.4972L44.3343 54.2887L39.1257 49.08L42.4776 45.7281L47.6862 50.9367L52.8948 45.7281L56.2468 49.08L51.0382 54.2887L56.2468 59.4972Z" fill="white"/>
</svg>
