<svg width="70" height="70" viewBox="0 0 70 70" fill="none" xmlns="http://www.w3.org/2000/svg">
<g clip-path="url(#clip0)">
<path d="M69.1238 30.6779L66.3293 29.6019C62.2645 28.0369 58.6494 25.4349 55.875 22.0769C53.3572 19.03 49.6462 17.2825 45.6937 17.2825C42.1028 17.2825 38.6213 18.772 36.1415 21.3693L34.9999 22.5649L33.8583 21.3693C31.3785 18.772 27.8968 17.2825 24.306 17.2825C20.3535 17.2825 16.6425 19.03 14.1247 22.0771C11.3503 25.4349 7.73532 28.0369 3.6704 29.6019L0.875879 30.6779C0.261056 30.9145 -0.0974202 31.5559 0.0228921 32.2035C0.143341 32.8512 0.708399 33.3209 1.36711 33.3209C3.39874 33.3209 5.85147 35.9198 8.69153 38.9291C14.1774 44.7418 21.6888 52.7002 34.9737 52.7176C34.9766 52.7176 34.9798 52.7176 34.9826 52.7176H35.0168C35.0197 52.7176 35.0228 52.7176 35.0257 52.7176C48.3106 52.7002 55.8221 44.7418 61.3079 38.9291C64.148 35.9198 66.6007 33.3209 68.6323 33.3209C69.291 33.3209 69.8561 32.8512 69.9765 32.2035C70.0971 31.556 69.7387 30.9145 69.1238 30.6779ZM59.3196 37.0524C53.8852 42.8107 47.1217 49.9762 34.9999 49.9833C22.878 49.9764 16.1145 42.8107 10.6801 37.0524C9.51649 35.8196 8.43682 34.6765 7.39106 33.7037C11.3785 33.0234 17.2892 32.5214 21.7629 34.3119C28.2089 36.892 33.1289 37.1762 34.9834 37.1762C34.9944 37.1762 35.005 37.1762 35.016 37.1762C36.8708 37.1762 41.7911 36.8919 48.2365 34.3119C52.6807 32.5331 58.5004 32.9979 62.6095 33.7028C61.5637 34.6758 60.4835 35.8192 59.3196 37.0524ZM47.2207 31.7733C41.9169 33.8961 37.7089 34.3434 35.7031 34.4236C35.6948 34.4234 35.6865 34.4234 35.678 34.4234H34.3217C34.3141 34.4234 34.3066 34.4234 34.2989 34.4236C32.2923 34.3437 28.0837 33.8965 22.779 31.7731C17.882 29.8131 11.6739 30.2431 7.36645 30.937C10.764 29.1954 13.7926 26.7721 16.2328 23.819C18.2293 21.4028 21.1719 20.017 24.3061 20.017C27.1536 20.017 29.9145 21.1981 31.8808 23.2576L34.0111 25.4889C34.2691 25.759 34.6263 25.9119 34.9999 25.9119C35.3734 25.9119 35.7308 25.759 35.9886 25.4889L38.1189 23.2576C40.0854 21.1981 42.8461 20.017 45.6936 20.017C48.8278 20.017 51.7704 21.4028 53.7669 23.8188C56.2064 26.7713 59.2337 29.1939 62.6302 30.9355C58.2084 30.22 52.0852 29.8261 47.2207 31.7733Z" fill="white"/>
<path d="M52.6136 26.1781C50.8838 24.0847 48.3342 22.884 45.6187 22.884C44.8637 22.884 44.2515 23.4961 44.2515 24.2512C44.2515 25.0063 44.8637 25.6185 45.6187 25.6185C47.5159 25.6185 49.2971 26.4573 50.5057 27.9199C50.7761 28.2472 51.1667 28.4163 51.5604 28.4163C51.8671 28.4163 52.1757 28.3137 52.4305 28.103C53.0125 27.622 53.0944 26.7603 52.6136 26.1781Z" fill="white"/>
<path d="M30.2388 43.8774C27.2645 43.4525 24.6989 42.3484 22.3953 40.5022C21.806 40.0302 20.9458 40.1249 20.4733 40.714C20.0012 41.3033 20.096 42.1638 20.6852 42.6359C23.3813 44.7966 26.3798 46.088 29.8522 46.5842C29.9177 46.5936 29.9828 46.5981 30.0473 46.5981C30.7167 46.5981 31.3015 46.1059 31.399 45.4241C31.5058 44.6768 30.9864 43.9843 30.2388 43.8774Z" fill="white"/>
<path d="M35.5174 44.6317L35.4497 44.622C34.7013 44.515 34.0095 45.0344 33.9028 45.7819C33.796 46.5294 34.3153 47.222 35.0626 47.3289L35.1302 47.3386C35.1959 47.3479 35.2611 47.3526 35.3256 47.3526C35.995 47.3526 36.5798 46.8605 36.6773 46.1787C36.7841 45.4312 36.2649 44.7386 35.5174 44.6317Z" fill="white"/>
</g>
<defs>
<clipPath id="clip0">
<rect width="70" height="70" fill="white"/>
</clipPath>
</defs>
</svg>
