<svg width="70" height="52" viewBox="0 0 70 52" fill="none" xmlns="http://www.w3.org/2000/svg">
<path d="M69.8214 23.5233L61.7335 15.4355C61.9575 14.7891 62.3857 13.3911 62.5596 11.7217C62.8488 8.9427 62.2895 6.63073 60.9447 4.9822C61.0762 4.68382 61.147 4.36565 61.1573 4.0452L63.07 3.56338L63.23 4.51134C63.2802 4.80865 63.538 5.01904 63.8296 5.01904C63.8633 5.01904 63.8974 5.01614 63.9316 5.01036L68.2631 4.27918C68.5948 4.22316 68.8182 3.90895 68.7623 3.57739L68.2561 0.578538C68.2292 0.419302 68.1401 0.277268 68.0086 0.183645C67.8769 0.0901732 67.7134 0.0528757 67.5543 0.0793644L63.2227 0.810542C63.0634 0.837487 62.9214 0.926544 62.8278 1.05807C62.7342 1.1896 62.6967 1.3531 62.7235 1.51234L62.8663 2.35845L60.9027 2.85306C60.6976 2.4335 60.3762 2.05703 59.9147 1.78682C59.0524 1.28201 57.9489 1.33209 57.1458 1.92657C56.4287 2.45756 56.0899 3.2647 56.1205 4.06012L54.7462 4.40645L55.0438 5.58748L56.4597 5.23064C56.5667 5.41484 56.6963 5.5893 56.8538 5.74702C57.0636 5.9568 57.3023 6.11892 57.5561 6.23934C58.0099 7.23282 57.5403 9.21901 56.9896 10.6914L48.8744 2.57615C48.7602 2.46197 48.6052 2.39773 48.4437 2.39773C48.2822 2.39773 48.1274 2.46197 48.013 2.57615L29.5677 21.022L27.1708 18.6251C27.0566 18.5109 26.9016 18.4466 26.7401 18.4466C26.5786 18.4466 26.4238 18.5109 26.3094 18.6251L25.625 19.3095L24.973 18.6573L27.0114 16.6189C27.2492 16.3811 27.2492 15.9957 27.0114 15.7579L25.06 13.8066C24.8223 13.5688 24.4367 13.5688 24.1989 13.8066L19.2607 18.7447C19.0229 18.9825 19.0229 19.3681 19.2607 19.6057L21.212 21.5571C21.3309 21.676 21.4868 21.7355 21.6427 21.7355C21.7986 21.7355 21.9543 21.676 22.0734 21.5571L24.1118 19.5187L24.7638 20.1708L24.0794 20.8553C23.8416 21.0931 23.8416 21.4785 24.0794 21.7163L25.2015 22.8384L21.509 26.531L21.0639 26.0859C20.9411 25.963 20.7715 25.8968 20.5984 25.9085L18.0635 26.0541C17.9144 26.0626 17.7735 26.1258 17.6679 26.2314L7.39351 36.5056C7.28786 36.6111 7.22483 36.7521 7.21615 36.9013L7.07077 39.4361C7.06088 39.6095 7.12542 39.7788 7.24812 39.9017L7.77333 40.4269L4.87343 43.3269C4.70461 43.4957 4.6361 43.748 4.71861 43.9721C4.92504 44.5318 4.78666 45.1657 4.36711 45.5856C3.95775 45.9948 3.35978 46.1368 2.80717 45.9561C2.52767 45.8645 2.2232 45.986 2.08284 46.2443L0.677575 48.8318C0.548786 49.0689 0.591411 49.3624 0.78216 49.553L1.14843 49.9192L0.178097 50.8896C-0.0596913 51.1274 -0.0596913 51.513 0.178097 51.7508C0.415886 51.9885 0.801341 51.9885 1.03913 51.7508L2.00947 50.7804L2.53467 51.3056C2.65357 51.4245 2.80945 51.484 2.96534 51.484C3.12123 51.484 3.27696 51.4245 3.39601 51.3056L11.024 43.6777L11.5438 44.1975C11.6634 44.317 11.8264 44.3852 11.9954 44.381C12.0018 44.3808 12.0082 44.3805 12.0146 44.3801L14.5494 44.2347C14.6986 44.2262 14.8394 44.163 14.945 44.0573L25.2194 33.7829C25.3251 33.6774 25.3881 33.5365 25.3968 33.3873L25.5423 30.8525C25.5522 30.6791 25.4877 30.5098 25.365 30.3869L24.9198 29.9418L28.6123 26.2492L29.7344 27.3713C29.8486 27.4855 30.0035 27.5497 30.165 27.5497C30.3266 27.5497 30.4814 27.4855 30.5957 27.3713L32.8258 25.1413C33.0636 24.9035 33.0636 24.518 32.8258 24.2802L30.4289 21.8833L30.6828 21.6294L51.1991 42.1459C51.3133 42.2601 51.4683 42.3243 51.6298 42.3243C51.7913 42.3243 51.9461 42.2601 52.0605 42.1459L69.8215 24.3847C70.0592 24.1467 70.0592 23.7611 69.8214 23.5233ZM67.1567 1.38187L67.4601 3.1799L64.3294 3.70831L64.0259 1.91028L67.1567 1.38187ZM21.6429 20.2654L20.5526 19.1752L24.6295 15.0984L25.7198 16.1886L21.6429 20.2654ZM2.96534 50.0136L1.96486 49.0133L2.93413 47.2284C3.77111 47.3375 4.61631 47.0583 5.22814 46.4465C5.88426 45.7902 6.15798 44.8439 5.97439 43.948L8.63406 41.2884L10.1623 42.8165L2.96534 50.0136ZM24.1941 33.0857L14.248 43.032L12.2172 43.1487L8.30234 39.2337L8.4188 37.2029L18.3651 27.2567L20.3958 27.1401L24.3106 31.0549L24.1941 33.0857ZM24.0587 29.0805L22.3704 27.3922L26.0628 23.6996L27.7511 25.3879L24.0587 29.0805ZM30.165 26.0795L25.3714 21.2858L26.7404 19.9169L31.5341 24.7106L30.165 26.0795ZM57.7152 3.03939C57.9697 2.78486 58.3042 2.65759 58.6385 2.65759C58.9728 2.65759 59.3074 2.78486 59.5618 3.03939C60.071 3.54861 60.071 4.37707 59.5618 4.88629C59.0527 5.39536 58.2241 5.39536 57.715 4.88629C57.2061 4.37707 57.2061 3.54846 57.7152 3.03939ZM58.612 9.60035C58.9463 8.34229 59.0378 7.29615 58.8889 6.47256C59.3447 6.4275 59.7892 6.25715 60.1703 5.96532C62.1539 8.65803 61.2919 12.6863 60.7632 14.4651L57.926 11.6279C58.1031 11.1959 58.3862 10.4504 58.612 9.60035ZM61.9188 23.8745L51.5499 34.2435L45.8003 28.4939L56.1693 18.125L61.9188 23.8745ZM49.0799 33.4958L48.428 34.1477L45.8962 31.6159L46.5481 30.964L49.0799 33.4958ZM49.9409 34.3569L51.1192 35.5352C51.2334 35.6493 51.3884 35.7136 51.5499 35.7136C51.7114 35.7136 51.8662 35.6493 51.9806 35.5352L63.2107 24.3049C63.4484 24.0671 63.4484 23.6815 63.2107 23.4439L62.0324 22.2656L62.6842 21.6137L64.6263 23.5557L51.2311 36.9508L49.2891 35.0087L49.9409 34.3569ZM61.1712 21.4045L58.6394 18.8727L59.2914 18.2209L61.8232 20.7527L61.1712 21.4045ZM57.7782 18.0116L56.5999 16.8333C56.4857 16.7191 56.3308 16.6549 56.1693 16.6549C56.0077 16.6549 55.8529 16.7191 55.7386 16.8333L44.5085 28.0635C44.2707 28.3013 44.2707 28.6869 44.5085 28.9246L45.6868 30.1029L45.0349 30.7547L40.6075 26.3273L41.2594 25.6754L42.4376 26.8537C42.5518 26.9679 42.7068 27.0322 42.8683 27.0322C43.0298 27.0322 43.1847 26.9679 43.299 26.8537L54.5292 15.6235C54.6434 15.5093 54.7075 15.3543 54.7075 15.193C54.7075 15.0316 54.6434 14.8766 54.5292 14.7624L53.351 13.5842L54.0028 12.9323L58.4302 17.3597L57.7782 18.0116ZM53.2374 15.193L42.8683 25.5619L37.1188 19.8123L47.4877 9.44355L53.2374 15.193ZM40.3983 24.8144L39.7465 25.4663L37.2147 22.9345L37.8665 22.2826L40.3983 24.8144ZM52.4896 12.723L49.9578 10.1913L50.6098 9.53931L53.1416 12.0711L52.4896 12.723ZM49.0968 9.33014L47.9185 8.15185C47.6806 7.91391 47.2951 7.91406 47.0573 8.15185L35.8272 19.382C35.5894 19.6198 35.5894 20.0054 35.8272 20.243L37.0055 21.4213L36.3536 22.0731L33.2962 19.0157L46.6913 5.62051L49.7488 8.67797L49.0968 9.33014ZM51.6297 40.8539L31.5438 20.7682L32.435 19.877L50.8004 38.2426C50.9146 38.3568 51.0696 38.421 51.2311 38.421C51.3926 38.421 51.5474 38.3568 51.6618 38.2426L65.918 23.9864C66.1558 23.7486 66.1558 23.363 65.918 23.1254L47.5524 4.75963L48.4439 3.86815L68.5297 23.9538L51.6297 40.8539Z" fill="white"/>
</svg>
