<svg width="70" height="70" viewBox="0 0 70 70" fill="none" xmlns="http://www.w3.org/2000/svg">
<g clip-path="url(#clip0)">
<path d="M66.417 27.6528L61.5037 26.8193C60.9919 25.1669 60.3339 23.573 59.5296 22.0522L62.4249 18.0017C63.6532 16.2762 63.4631 13.9219 61.957 12.4304L57.5994 8.07279C56.7805 7.25391 55.6984 6.8006 54.5432 6.8006C53.6366 6.8006 52.7738 7.07843 52.0427 7.60486L47.9776 10.5002C46.3983 9.66668 44.7459 8.9794 43.035 8.4676L42.2162 3.61282C41.8652 1.52175 40.0666 0.000976562 37.9463 0.000976562H31.7901C29.6698 0.000976562 27.8711 1.52175 27.5202 3.61282L26.6721 8.58459C25.0343 9.09639 23.4404 9.76904 21.9196 10.5879L17.8984 7.69259C17.1672 7.16617 16.2898 6.88834 15.3832 6.88834C14.228 6.88834 13.1313 7.34164 12.3271 8.16052L7.95483 12.5181C6.4633 14.0097 6.25858 16.3639 7.4869 18.0894L10.4115 22.1985C9.60721 23.7339 8.9638 25.3277 8.46663 26.9801L3.61184 27.799C1.52078 28.15 0 29.9486 0 32.0689V38.2251C0 40.3454 1.52078 42.144 3.61184 42.495L8.58361 43.3431C9.09541 44.9808 9.76806 46.5747 10.5869 48.0955L7.70624 52.1022C6.47792 53.8277 6.66802 56.1819 8.17417 57.6735L12.5318 62.0311C13.3507 62.85 14.4327 63.3033 15.588 63.3033C16.4946 63.3033 17.3573 63.0254 18.0885 62.499L22.1975 59.5744C23.6744 60.3495 25.2244 60.9782 26.8183 61.4754L27.6372 66.3887C27.9881 68.4798 29.7867 70.0005 31.907 70.0005H38.0779C40.1982 70.0005 41.9968 68.4798 42.3478 66.3887L43.1813 61.4754C44.8336 60.9636 46.4275 60.3056 47.9483 59.5013L51.9988 62.3967C52.73 62.9231 53.6073 63.2009 54.514 63.2009C55.6692 63.2009 56.7513 62.7476 57.5701 61.9287L61.9277 57.5711C63.4193 56.0796 63.624 53.7253 62.3957 51.9998L59.5004 47.9347C60.3046 46.3993 60.9773 44.8054 61.4744 43.1676L66.3877 42.3487C68.4788 41.9978 69.9996 40.1992 69.9996 38.0789V31.9226C70.0288 29.8023 68.508 28.0037 66.417 27.6528ZM66.0806 38.0789C66.0806 38.269 65.949 38.4298 65.7589 38.4591L59.6173 39.4827C58.8423 39.6143 58.2282 40.1846 58.0381 40.9303C57.4824 43.0799 56.6343 45.1417 55.4937 47.0573C55.0989 47.7299 55.1281 48.5634 55.5814 49.2068L59.1933 54.2956C59.2956 54.4418 59.281 54.6612 59.1494 54.7928L54.7918 59.1504C54.6894 59.2527 54.5871 59.2674 54.514 59.2674C54.4262 59.2674 54.3531 59.2381 54.2946 59.1943L49.2205 55.5824C48.5917 55.1291 47.7436 55.0999 47.0709 55.4947C45.1553 56.6353 43.0935 57.4834 40.944 58.039C40.1836 58.2291 39.6133 58.8579 39.4963 59.6183L38.4581 65.7599C38.4288 65.95 38.268 66.0816 38.0779 66.0816H31.9217C31.7316 66.0816 31.5707 65.95 31.5415 65.7599L30.5179 59.6183C30.3863 58.8433 29.816 58.2291 29.0702 58.039C26.9791 57.498 24.9612 56.6645 23.0749 55.5824C22.7678 55.4069 22.4168 55.3192 22.0805 55.3192C21.6857 55.3192 21.2762 55.4362 20.9399 55.6848L15.8219 59.3259C15.7488 59.3697 15.6757 59.399 15.6026 59.399C15.5441 59.399 15.4271 59.3843 15.3247 59.282L10.9671 54.9244C10.8355 54.7928 10.8209 54.5881 10.9233 54.4272L14.5205 49.3823C14.9738 48.7389 15.003 47.8908 14.6082 47.2181C13.4676 45.3172 12.5903 43.2554 12.0346 41.1058C11.8299 40.36 11.2157 39.7897 10.4553 39.6581L4.26987 38.6053C4.07977 38.576 3.94817 38.4152 3.94817 38.2251V32.0689C3.94817 31.8788 4.07977 31.7179 4.26987 31.6887L10.3676 30.6651C11.1426 30.5335 11.7714 29.9632 11.9615 29.2028C12.5025 27.0532 13.336 24.9768 14.462 23.0612C14.8568 22.3886 14.8129 21.555 14.3596 20.9263L10.7185 15.8083C10.6162 15.662 10.6308 15.4427 10.7624 15.3111L15.12 10.9535C15.2224 10.8511 15.3247 10.8365 15.3979 10.8365C15.4856 10.8365 15.5587 10.8658 15.6172 10.9096L20.6621 14.5068C21.3055 14.9601 22.1536 14.9894 22.8263 14.5946C24.7272 13.454 26.7891 12.5766 28.9386 12.021C29.6844 11.8162 30.2547 11.2021 30.3863 10.4417L31.4391 4.25622C31.4684 4.06613 31.6292 3.93452 31.8193 3.93452H37.9755C38.1656 3.93452 38.3265 4.06613 38.3557 4.25622L39.3793 10.354C39.5109 11.129 40.0812 11.7577 40.8416 11.9478C43.0497 12.5035 45.1553 13.3663 47.1148 14.5215C47.7875 14.9163 48.621 14.887 49.2644 14.4337L54.3092 10.8073C54.3824 10.7634 54.4555 10.7341 54.5286 10.7341C54.5871 10.7341 54.7041 10.7488 54.8064 10.8511L59.164 15.2087C59.2956 15.3403 59.3103 15.5451 59.2079 15.7059L55.5961 20.78C55.1427 21.4088 55.1135 22.2569 55.5083 22.9296C56.6489 24.8452 57.497 26.907 58.0527 29.0566C58.2428 29.817 58.8716 30.3872 59.632 30.5042L65.7736 31.5425C65.9637 31.5717 66.0953 31.7325 66.0953 31.9226V38.0789H66.0806Z" fill="white"/>
<path d="M35.0071 19.8872C26.6721 19.8872 19.9017 26.6576 19.9017 34.9926C19.9017 43.3276 26.6721 50.098 35.0071 50.098C43.3422 50.098 50.1125 43.3276 50.1125 34.9926C50.1125 26.6576 43.3422 19.8872 35.0071 19.8872ZM35.0071 46.1498C28.8509 46.1498 23.8499 41.1488 23.8499 34.9926C23.8499 28.8364 28.8509 23.8354 35.0071 23.8354C41.1633 23.8354 46.1644 28.8364 46.1644 34.9926C46.1644 41.1488 41.1633 46.1498 35.0071 46.1498Z" fill="white"/>
</g>
<defs>
<clipPath id="clip0">
<rect width="70" height="70" fill="white"/>
</clipPath>
</defs>
</svg>
